<svg width="114" height="46" viewBox="0 0 114 46" fill="none" xmlns="http://www.w3.org/2000/svg">
<path d="M9.82386 11.4091C9.82386 12.483 9.62997 13.411 9.24219 14.1932C8.8544 14.9754 8.32244 15.5786 7.64631 16.0028C6.97017 16.4271 6.19792 16.6392 5.32955 16.6392C4.46117 16.6392 3.68892 16.4271 3.01278 16.0028C2.33665 15.5786 1.80469 14.9754 1.4169 14.1932C1.02912 13.411 0.835227 12.483 0.835227 11.4091C0.835227 10.3352 1.02912 9.4072 1.4169 8.625C1.80469 7.8428 2.33665 7.23958 3.01278 6.81534C3.68892 6.3911 4.46117 6.17898 5.32955 6.17898C6.19792 6.17898 6.97017 6.3911 7.64631 6.81534C8.32244 7.23958 8.8544 7.8428 9.24219 8.625C9.62997 9.4072 9.82386 10.3352 9.82386 11.4091ZM8.63068 11.4091C8.63068 10.5275 8.48319 9.78338 8.18821 9.17685C7.89654 8.57031 7.50047 8.11127 7 7.79972C6.50284 7.48816 5.94602 7.33239 5.32955 7.33239C4.71307 7.33239 4.15459 7.48816 3.65412 7.79972C3.15696 8.11127 2.76089 8.57031 2.46591 9.17685C2.17424 9.78338 2.02841 10.5275 2.02841 11.4091C2.02841 12.2907 2.17424 13.0348 2.46591 13.6413C2.76089 14.2479 3.15696 14.7069 3.65412 15.0185C4.15459 15.33 4.71307 15.4858 5.32955 15.4858C5.94602 15.4858 6.50284 15.33 7 15.0185C7.50047 14.7069 7.89654 14.2479 8.18821 13.6413C8.48319 13.0348 8.63068 12.2907 8.63068 11.4091ZM13.468 16.5L11.1413 8.86364H12.3743L14.0249 14.7102H14.1044L15.7351 8.86364H16.9879L18.5987 14.6903H18.6783L20.3288 8.86364H21.5618L19.2351 16.5H18.0817L16.4112 10.6335H16.2919L14.6214 16.5H13.468ZM24.2862 11.9062V16.5H23.1129V8.86364H24.2464V10.0568H24.3459C24.5249 9.66903 24.7966 9.35748 25.1612 9.12216C25.5258 8.88352 25.9964 8.7642 26.5732 8.7642C27.0902 8.7642 27.5426 8.87027 27.9304 9.08239C28.3182 9.29119 28.6198 9.60938 28.8352 10.0369C29.0507 10.4612 29.1584 10.9981 29.1584 11.6477V16.5H27.9851V11.7273C27.9851 11.1274 27.8293 10.66 27.5178 10.3253C27.2062 9.98722 26.7786 9.81818 26.2351 9.81818C25.8606 9.81818 25.5258 9.89938 25.2308 10.0618C24.9392 10.2242 24.7088 10.4612 24.5398 10.7727C24.3707 11.0843 24.2862 11.4621 24.2862 11.9062ZM34.5041 16.6591C33.7683 16.6591 33.1336 16.4967 32.6 16.1719C32.0697 15.8438 31.6603 15.3864 31.372 14.7997C31.0869 14.2098 30.9444 13.5237 30.9444 12.7415C30.9444 11.9593 31.0869 11.2699 31.372 10.6733C31.6603 10.0734 32.0614 9.60606 32.5751 9.27131C33.0922 8.93324 33.6954 8.7642 34.3848 8.7642C34.7825 8.7642 35.1752 8.83049 35.563 8.96307C35.9508 9.09564 36.3038 9.31108 36.622 9.60938C36.9402 9.90436 37.1937 10.2955 37.3826 10.7827C37.5716 11.2699 37.666 11.8698 37.666 12.5824V13.0795H31.7797V12.0653H36.4728C36.4728 11.6345 36.3867 11.25 36.2143 10.9119C36.0453 10.5739 35.8033 10.3071 35.4885 10.1115C35.1769 9.91596 34.809 9.81818 34.3848 9.81818C33.9174 9.81818 33.5131 9.93419 33.1717 10.1662C32.8336 10.3949 32.5734 10.6932 32.3912 11.0611C32.2089 11.429 32.1177 11.8234 32.1177 12.2443V12.9205C32.1177 13.4972 32.2172 13.986 32.416 14.3871C32.6182 14.7848 32.8983 15.0881 33.2562 15.2969C33.6142 15.5024 34.0301 15.6051 34.5041 15.6051C34.8123 15.6051 35.0907 15.562 35.3393 15.4759C35.5912 15.3864 35.8083 15.2538 35.9906 15.0781C36.1729 14.8991 36.3137 14.6771 36.4132 14.4119L37.5467 14.7301C37.4274 15.1146 37.2269 15.4527 36.9451 15.7443C36.6634 16.0327 36.3154 16.258 35.9011 16.4205C35.4868 16.5795 35.0211 16.6591 34.5041 16.6591ZM39.4508 16.5V8.86364H40.5843V10.017H40.6639C40.8031 9.6392 41.055 9.33262 41.4196 9.0973C41.7842 8.86198 42.1951 8.74432 42.6525 8.74432C42.7387 8.74432 42.8464 8.74597 42.9757 8.74929C43.1049 8.7526 43.2027 8.75758 43.269 8.7642V9.95739C43.2292 9.94744 43.1381 9.93253 42.9956 9.91264C42.8564 9.88944 42.7089 9.87784 42.5531 9.87784C42.1819 9.87784 41.8504 9.95573 41.5588 10.1115C41.2704 10.264 41.0417 10.4761 40.8727 10.7479C40.707 11.0163 40.6241 11.3229 40.6241 11.6676V16.5H39.4508Z" fill="#FFFFFD"/>
<path d="M3.01705 41.5H0.380682L4.39773 29.8636H7.56818L11.5795 41.5H8.94318L6.02841 32.5227H5.9375L3.01705 41.5ZM2.85227 36.9261H9.07955V38.8466H2.85227V36.9261ZM12.9801 41.5V29.8636H15.4006V34.2386H15.4744C15.5805 34.0038 15.7339 33.7652 15.9347 33.5227C16.1392 33.2765 16.4044 33.072 16.7301 32.9091C17.0597 32.7424 17.4688 32.6591 17.9574 32.6591C18.5938 32.6591 19.1809 32.8258 19.7188 33.1591C20.2566 33.4886 20.6866 33.9867 21.0085 34.6534C21.3305 35.3163 21.4915 36.1477 21.4915 37.1477C21.4915 38.1212 21.3343 38.9432 21.0199 39.6136C20.7093 40.2803 20.285 40.786 19.7472 41.1307C19.2131 41.4716 18.6146 41.642 17.9517 41.642C17.482 41.642 17.0824 41.5644 16.7528 41.4091C16.4271 41.2538 16.16 41.0587 15.9517 40.8239C15.7434 40.5852 15.5843 40.3447 15.4744 40.1023H15.3665V41.5H12.9801ZM15.3494 37.1364C15.3494 37.6553 15.4214 38.108 15.5653 38.4943C15.7093 38.8807 15.9176 39.1818 16.1903 39.3977C16.4631 39.6098 16.7945 39.7159 17.1847 39.7159C17.5786 39.7159 17.9119 39.608 18.1847 39.392C18.4574 39.1723 18.6638 38.8693 18.804 38.483C18.9479 38.0928 19.0199 37.6439 19.0199 37.1364C19.0199 36.6326 18.9498 36.1894 18.8097 35.8068C18.6695 35.4242 18.4631 35.125 18.1903 34.9091C17.9176 34.6932 17.5824 34.5852 17.1847 34.5852C16.7907 34.5852 16.4574 34.6894 16.1847 34.8977C15.9157 35.1061 15.7093 35.4015 15.5653 35.7841C15.4214 36.1667 15.3494 36.6174 15.3494 37.1364ZM23.1065 41.5V32.7727H25.4531V34.2955H25.544C25.7031 33.7538 25.9702 33.3447 26.3452 33.0682C26.7202 32.7879 27.152 32.6477 27.6406 32.6477C27.7618 32.6477 27.8925 32.6553 28.0327 32.6705C28.1728 32.6856 28.2959 32.7064 28.402 32.733V34.8807C28.2884 34.8466 28.1312 34.8163 27.9304 34.7898C27.7296 34.7633 27.5459 34.75 27.3793 34.75C27.0232 34.75 26.705 34.8277 26.4247 34.983C26.1482 35.1345 25.9285 35.3466 25.7656 35.6193C25.6065 35.892 25.527 36.2064 25.527 36.5625V41.5H23.1065ZM31.892 41.6648C31.3352 41.6648 30.839 41.5682 30.4034 41.375C29.9678 41.178 29.6231 40.8883 29.3693 40.5057C29.1193 40.1193 28.9943 39.6383 28.9943 39.0625C28.9943 38.5777 29.0833 38.1705 29.2614 37.8409C29.4394 37.5114 29.6818 37.2462 29.9886 37.0455C30.2955 36.8447 30.6439 36.6932 31.0341 36.5909C31.428 36.4886 31.8409 36.4167 32.2727 36.375C32.7803 36.322 33.1894 36.2727 33.5 36.2273C33.8106 36.178 34.036 36.1061 34.1761 36.0114C34.3163 35.9167 34.3864 35.7765 34.3864 35.5909V35.5568C34.3864 35.197 34.2727 34.9186 34.0455 34.7216C33.822 34.5246 33.5038 34.4261 33.0909 34.4261C32.6553 34.4261 32.3087 34.5227 32.0511 34.7159C31.7936 34.9053 31.6231 35.1439 31.5398 35.4318L29.3011 35.25C29.4148 34.7197 29.6383 34.2614 29.9716 33.875C30.3049 33.4848 30.7348 33.1856 31.2614 32.9773C31.7917 32.7652 32.4053 32.6591 33.1023 32.6591C33.5871 32.6591 34.0511 32.7159 34.4943 32.8295C34.9413 32.9432 35.3371 33.1193 35.6818 33.358C36.0303 33.5966 36.3049 33.9034 36.5057 34.2784C36.7064 34.6496 36.8068 35.0947 36.8068 35.6136V41.5H34.5114V40.2898H34.4432C34.303 40.5625 34.1155 40.803 33.8807 41.0114C33.6458 41.2159 33.3636 41.3769 33.0341 41.4943C32.7045 41.608 32.3239 41.6648 31.892 41.6648ZM32.5852 39.9943C32.9413 39.9943 33.2557 39.9242 33.5284 39.7841C33.8011 39.6402 34.0152 39.447 34.1705 39.2045C34.3258 38.9621 34.4034 38.6875 34.4034 38.3807V37.4545C34.3277 37.5038 34.2235 37.5492 34.0909 37.5909C33.9621 37.6288 33.8163 37.6648 33.6534 37.6989C33.4905 37.7292 33.3277 37.7576 33.1648 37.7841C33.0019 37.8068 32.8542 37.8277 32.7216 37.8466C32.4375 37.8883 32.1894 37.9545 31.9773 38.0455C31.7652 38.1364 31.6004 38.2595 31.483 38.4148C31.3655 38.5663 31.3068 38.7557 31.3068 38.983C31.3068 39.3125 31.4261 39.5644 31.6648 39.7386C31.9072 39.9091 32.214 39.9943 32.5852 39.9943ZM41.1051 36.4545V41.5H38.6847V29.8636H41.0369V34.3125H41.1392C41.3362 33.7973 41.6544 33.3939 42.0938 33.1023C42.5331 32.8068 43.0843 32.6591 43.7472 32.6591C44.3532 32.6591 44.8816 32.7917 45.3324 33.0568C45.7869 33.3182 46.1392 33.6951 46.3892 34.1875C46.643 34.6761 46.768 35.2614 46.7642 35.9432V41.5H44.3438V36.375C44.3475 35.8371 44.2112 35.4186 43.9347 35.1193C43.6619 34.8201 43.2794 34.6705 42.7869 34.6705C42.4574 34.6705 42.1657 34.7405 41.9119 34.8807C41.6619 35.0208 41.465 35.2254 41.321 35.4943C41.1809 35.7595 41.1089 36.0795 41.1051 36.4545ZM51.1577 41.6648C50.6009 41.6648 50.1046 41.5682 49.669 41.375C49.2334 41.178 48.8887 40.8883 48.6349 40.5057C48.3849 40.1193 48.2599 39.6383 48.2599 39.0625C48.2599 38.5777 48.349 38.1705 48.527 37.8409C48.705 37.5114 48.9474 37.2462 49.2543 37.0455C49.5611 36.8447 49.9096 36.6932 50.2997 36.5909C50.6937 36.4886 51.1065 36.4167 51.5384 36.375C52.0459 36.322 52.455 36.2727 52.7656 36.2273C53.0762 36.178 53.3016 36.1061 53.4418 36.0114C53.5819 35.9167 53.652 35.7765 53.652 35.5909V35.5568C53.652 35.197 53.5384 34.9186 53.3111 34.7216C53.0876 34.5246 52.7694 34.4261 52.3565 34.4261C51.9209 34.4261 51.5743 34.5227 51.3168 34.7159C51.0592 34.9053 50.8887 35.1439 50.8054 35.4318L48.5668 35.25C48.6804 34.7197 48.9039 34.2614 49.2372 33.875C49.5705 33.4848 50.0005 33.1856 50.527 32.9773C51.0573 32.7652 51.6709 32.6591 52.3679 32.6591C52.8527 32.6591 53.3168 32.7159 53.7599 32.8295C54.2069 32.9432 54.6027 33.1193 54.9474 33.358C55.2959 33.5966 55.5705 33.9034 55.7713 34.2784C55.9721 34.6496 56.0724 35.0947 56.0724 35.6136V41.5H53.777V40.2898H53.7088C53.5687 40.5625 53.3812 40.803 53.1463 41.0114C52.9115 41.2159 52.6293 41.3769 52.2997 41.4943C51.9702 41.608 51.5895 41.6648 51.1577 41.6648ZM51.8509 39.9943C52.2069 39.9943 52.5213 39.9242 52.794 39.7841C53.0668 39.6402 53.2808 39.447 53.4361 39.2045C53.5914 38.9621 53.669 38.6875 53.669 38.3807V37.4545C53.5933 37.5038 53.4891 37.5492 53.3565 37.5909C53.2277 37.6288 53.0819 37.6648 52.919 37.6989C52.7562 37.7292 52.5933 37.7576 52.4304 37.7841C52.2675 37.8068 52.1198 37.8277 51.9872 37.8466C51.7031 37.8883 51.455 37.9545 51.2429 38.0455C51.0308 38.1364 50.866 38.2595 50.7486 38.4148C50.6312 38.5663 50.5724 38.7557 50.5724 38.983C50.5724 39.3125 50.6918 39.5644 50.9304 39.7386C51.1728 39.9091 51.4796 39.9943 51.8509 39.9943ZM57.9503 41.5V32.7727H60.2571V34.3125H60.3594C60.5412 33.8011 60.8442 33.3977 61.2685 33.1023C61.6927 32.8068 62.2003 32.6591 62.7912 32.6591C63.3897 32.6591 63.8991 32.8087 64.3196 33.108C64.7401 33.4034 65.0204 33.8049 65.1605 34.3125H65.2514C65.4295 33.8125 65.7514 33.4129 66.2173 33.1136C66.687 32.8106 67.242 32.6591 67.8821 32.6591C68.6965 32.6591 69.3575 32.9186 69.8651 33.4375C70.3764 33.9527 70.6321 34.6837 70.6321 35.6307V41.5H68.2173V36.108C68.2173 35.6231 68.0885 35.2595 67.831 35.017C67.5734 34.7746 67.2514 34.6534 66.8651 34.6534C66.4257 34.6534 66.0829 34.7936 65.8366 35.0739C65.5904 35.3504 65.4673 35.7159 65.4673 36.1705V41.5H63.1207V36.0568C63.1207 35.6288 62.9976 35.2879 62.7514 35.0341C62.509 34.7803 62.1889 34.6534 61.7912 34.6534C61.5223 34.6534 61.2798 34.7216 61.0639 34.858C60.8518 34.9905 60.6832 35.178 60.5582 35.4205C60.4332 35.6591 60.3707 35.9394 60.3707 36.2614V41.5H57.9503ZM76.1676 41.5V40.0398L81.9744 31.892H76.1562V29.8636H85.0653V31.3239L79.2528 39.4716H85.0767V41.5H76.1676ZM89.4077 41.6648C88.8509 41.6648 88.3546 41.5682 87.919 41.375C87.4834 41.178 87.1387 40.8883 86.8849 40.5057C86.6349 40.1193 86.5099 39.6383 86.5099 39.0625C86.5099 38.5777 86.599 38.1705 86.777 37.8409C86.955 37.5114 87.1974 37.2462 87.5043 37.0455C87.8111 36.8447 88.1596 36.6932 88.5497 36.5909C88.9437 36.4886 89.3565 36.4167 89.7884 36.375C90.2959 36.322 90.705 36.2727 91.0156 36.2273C91.3262 36.178 91.5516 36.1061 91.6918 36.0114C91.8319 35.9167 91.902 35.7765 91.902 35.5909V35.5568C91.902 35.197 91.7884 34.9186 91.5611 34.7216C91.3376 34.5246 91.0194 34.4261 90.6065 34.4261C90.1709 34.4261 89.8243 34.5227 89.5668 34.7159C89.3092 34.9053 89.1387 35.1439 89.0554 35.4318L86.8168 35.25C86.9304 34.7197 87.1539 34.2614 87.4872 33.875C87.8205 33.4848 88.2505 33.1856 88.777 32.9773C89.3073 32.7652 89.9209 32.6591 90.6179 32.6591C91.1027 32.6591 91.5668 32.7159 92.0099 32.8295C92.4569 32.9432 92.8527 33.1193 93.1974 33.358C93.5459 33.5966 93.8205 33.9034 94.0213 34.2784C94.2221 34.6496 94.3224 35.0947 94.3224 35.6136V41.5H92.027V40.2898H91.9588C91.8187 40.5625 91.6312 40.803 91.3963 41.0114C91.1615 41.2159 90.8793 41.3769 90.5497 41.4943C90.2202 41.608 89.8395 41.6648 89.4077 41.6648ZM90.1009 39.9943C90.4569 39.9943 90.7713 39.9242 91.044 39.7841C91.3168 39.6402 91.5308 39.447 91.6861 39.2045C91.8414 38.9621 91.919 38.6875 91.919 38.3807V37.4545C91.8433 37.5038 91.7391 37.5492 91.6065 37.5909C91.4777 37.6288 91.3319 37.6648 91.169 37.6989C91.0062 37.7292 90.8433 37.7576 90.6804 37.7841C90.5175 37.8068 90.3698 37.8277 90.2372 37.8466C89.9531 37.8883 89.705 37.9545 89.4929 38.0455C89.2808 38.1364 89.116 38.2595 88.9986 38.4148C88.8812 38.5663 88.8224 38.7557 88.8224 38.983C88.8224 39.3125 88.9418 39.5644 89.1804 39.7386C89.4228 39.9091 89.7296 39.9943 90.1009 39.9943ZM100.143 41.6705C99.2495 41.6705 98.4806 41.4811 97.8366 41.1023C97.1965 40.7197 96.7041 40.1894 96.3594 39.5114C96.0185 38.8333 95.848 38.053 95.848 37.1705C95.848 36.2765 96.0204 35.4924 96.3651 34.8182C96.7135 34.1402 97.2079 33.6117 97.848 33.233C98.4882 32.8504 99.2495 32.6591 100.132 32.6591C100.893 32.6591 101.56 32.7973 102.132 33.0739C102.704 33.3504 103.157 33.7386 103.49 34.2386C103.823 34.7386 104.007 35.3258 104.041 36H101.757C101.693 35.5644 101.522 35.214 101.246 34.9489C100.973 34.6799 100.615 34.5455 100.172 34.5455C99.7969 34.5455 99.4692 34.6477 99.1889 34.8523C98.9124 35.053 98.6965 35.3466 98.5412 35.733C98.3859 36.1193 98.3082 36.5871 98.3082 37.1364C98.3082 37.6932 98.384 38.1667 98.5355 38.5568C98.6908 38.947 98.9086 39.2443 99.1889 39.4489C99.4692 39.6534 99.7969 39.7557 100.172 39.7557C100.448 39.7557 100.696 39.6989 100.916 39.5852C101.14 39.4716 101.323 39.3068 101.467 39.0909C101.615 38.8712 101.712 38.608 101.757 38.3011H104.041C104.003 38.9678 103.821 39.5549 103.496 40.0625C103.174 40.5663 102.729 40.9602 102.161 41.2443C101.592 41.5284 100.92 41.6705 100.143 41.6705ZM107.784 38.9886L107.79 36.0852H108.142L110.938 32.7727H113.716L109.96 37.1591H109.386L107.784 38.9886ZM105.591 41.5V29.8636H108.011V41.5H105.591ZM111.045 41.5L108.477 37.6989L110.091 35.9886L113.881 41.5H111.045Z" fill="#FFFFFD"/>
</svg>
