<svg width="196" height="38" viewBox="0 0 196 38" fill="none" xmlns="http://www.w3.org/2000/svg">
<path d="M27.0534 13.9394C25.8826 10.9194 23.7009 8.39886 20.88 6.80714C18.0591 5.21542 14.7736 4.65104 11.5832 5.21018C8.39288 5.76931 5.4951 7.41736 3.38364 9.87351C1.27218 12.3297 0.0776728 15.4419 0.00365596 18.6801C-0.0703609 21.9182 0.980689 25.0818 2.97772 27.6319C4.97475 30.1819 7.7942 31.9607 10.9557 32.665C14.1171 33.3693 17.425 32.9557 20.3157 31.4945C23.2063 30.0333 25.5009 27.6151 26.8085 24.6517L14 19L27.0534 13.9394Z" fill="#D3F85A"/>
<circle cx="6" cy="19" r="2" fill="#090F1D"/>
<path d="M52 23.544L53.44 24.728C52.512 25.88 50.528 27.224 46.4 27.224C43.712 27.224 41.664 26.424 40.288 24.792C38.944 23.16 38.24 20.504 38.24 17.24V16.152V15.48V14.456C38.24 11.192 38.944 8.472 40.288 6.84C41.664 5.208 43.712 4.376 46.4 4.376C50.496 4.376 52.48 5.72 53.408 6.84L51.968 8.056C51.296 7.192 49.76 6.2 46.4 6.2C44.224 6.2 42.656 6.84 41.632 8.152C40.608 9.464 40.128 11.672 40.128 14.456V15.832V17.24C40.128 19.992 40.608 22.168 41.632 23.448C42.656 24.76 44.224 25.4 46.4 25.4C49.856 25.4 51.104 24.344 52 23.544ZM65.3835 11C65.9275 11 66.4715 11.096 66.9835 11.256V13.304C66.4395 13.112 65.9915 13.048 65.3835 12.984H64.5835C62.1515 12.984 60.5195 15.448 59.7515 17.528V20.024V24.696V27.032H57.9275V19.64V18.424V11H59.7515V14.136C60.6155 12.44 62.7275 11 64.5835 11H65.3835ZM82.0698 19.768C82.0698 19.832 82.0698 19.896 82.0698 19.928H69.7498L69.7818 20.056C69.9098 21.304 70.5178 22.552 71.3818 23.48C72.3418 24.504 73.4938 25.24 74.6778 25.24H80.0218V27.064H74.6778C71.2218 27.064 67.9578 23.512 67.9578 19.768V18.328C67.9578 14.584 71.2218 11.032 74.6778 11.032H75.5098C78.8698 11.032 81.9098 14.392 82.0698 18.072C82.0698 18.136 82.0698 18.232 82.0698 18.328V19.768ZM69.7498 18.136H80.2458V18.04C80.0858 16.792 79.4778 12.728 75.5098 12.728H74.6778C71.1578 12.728 69.9098 16.792 69.7818 18.04L69.7498 18.136ZM97.4075 23.416V27.032H97.3115H90.1435H90.0475H89.0235C87.2635 27.032 85.7595 26.2 84.8635 24.664C83.9675 23.096 83.9355 20.92 84.7995 19.448C85.3435 18.52 86.6875 16.92 89.7595 16.92H89.8235H89.8555C89.8875 16.92 89.8875 16.92 89.8875 16.92H90.0155H95.4875H95.6155V16.76C95.4555 14.2 94.8155 12.792 90.3355 12.792H86.2395V10.968H90.3355C93.7915 10.968 95.1675 11.832 96.1595 12.952C96.6395 13.496 96.9595 14.2 97.1515 15.128C97.3435 15.96 97.4075 16.984 97.4075 18.392V21.944V22.072V23.416ZM95.5195 25.208H95.6475V25.08V18.84V18.712H95.5195C95.5195 18.712 89.7915 18.712 89.7595 18.712C88.0955 18.712 86.8795 19.256 86.2715 20.312C85.6955 21.272 85.7275 22.52 86.3355 23.608C86.6875 24.184 87.4875 25.208 89.0235 25.208H95.5195ZM102.409 14.136V19.544V19.992C102.409 23.064 104.617 25.176 106.985 25.176H108.649V27.032H106.857C103.593 27.032 100.553 24.376 100.553 20.536V20.312V2.968H102.409V10.936H108.649V12.792H102.409V14.136ZM114.637 27.064H112.781V11.032H114.637V27.064ZM112.365 7.544C112.365 6.808 112.973 6.2 113.709 6.2C114.445 6.2 115.053 6.808 115.053 7.544C115.053 8.312 114.445 8.888 113.709 8.888C112.973 8.888 112.365 8.312 112.365 7.544ZM132.801 10.904L126.561 27H124.545L118.305 10.904H120.321L125.537 24.376L130.785 10.904H132.801ZM147.882 19.768C147.882 19.832 147.882 19.896 147.882 19.928H135.562L135.594 20.056C135.722 21.304 136.33 22.552 137.194 23.48C138.154 24.504 139.306 25.24 140.49 25.24H145.834V27.064H140.49C137.034 27.064 133.77 23.512 133.77 19.768V18.328C133.77 14.584 137.034 11.032 140.49 11.032H141.322C144.682 11.032 147.722 14.392 147.882 18.072C147.882 18.136 147.882 18.232 147.882 18.328V19.768ZM135.562 18.136H146.058V18.04C145.898 16.792 145.29 12.728 141.322 12.728H140.49C136.97 12.728 135.722 16.792 135.594 18.04L135.562 18.136Z" fill="white"/>
<path d="M163.22 23.416V27.032H163.124H155.956H155.86H154.836C153.076 27.032 151.572 26.2 150.676 24.664C149.78 23.096 149.748 20.92 150.612 19.448C151.156 18.52 152.5 16.92 155.572 16.92H155.636H155.668C155.7 16.92 155.7 16.92 155.7 16.92H155.828H161.3H161.428V16.76C161.268 14.2 160.628 12.792 156.148 12.792H152.052V10.968H156.148C159.604 10.968 160.98 11.832 161.972 12.952C162.452 13.496 162.772 14.2 162.964 15.128C163.156 15.96 163.22 16.984 163.22 18.392V21.944V22.072V23.416ZM161.332 25.208H161.46V25.08V18.84V18.712H161.332C161.332 18.712 155.604 18.712 155.572 18.712C153.908 18.712 152.692 19.256 152.084 20.312C151.508 21.272 151.54 22.52 152.148 23.608C152.5 24.184 153.3 25.208 154.836 25.208H161.332ZM173.821 11C174.365 11 174.909 11.096 175.421 11.256V13.304C174.877 13.112 174.429 13.048 173.821 12.984H173.021C170.589 12.984 168.957 15.448 168.189 17.528V20.024V24.696V27.032H166.365V19.64V18.424V11H168.189V14.136C169.053 12.44 171.165 11 173.021 11H173.821ZM179.627 14.136V19.544V19.992C179.627 23.064 181.835 25.176 184.203 25.176H185.867V27.032H184.075C180.811 27.032 177.771 24.376 177.771 20.536V20.312V2.968H179.627V10.936H185.867V12.792H179.627V14.136Z" fill="#D3F85A"/>
</svg>
