<svg width="109" height="51" viewBox="0 0 109 51" fill="none" xmlns="http://www.w3.org/2000/svg">
<path d="M1.23295 16.5V6.31818H7.37784V7.41193H2.46591V10.8523H7.05966V11.946H2.46591V15.4062H7.45739V16.5H1.23295ZM10.6143 11.9062V16.5H9.44105V8.86364H10.5746V10.0568H10.674C10.853 9.66903 11.1248 9.35748 11.4893 9.12216C11.8539 8.88352 12.3246 8.7642 12.9013 8.7642C13.4183 8.7642 13.8707 8.87027 14.2585 9.08239C14.6463 9.29119 14.9479 9.60938 15.1634 10.0369C15.3788 10.4612 15.4865 10.9981 15.4865 11.6477V16.5H14.3132V11.7273C14.3132 11.1274 14.1574 10.66 13.8459 10.3253C13.5343 9.98722 13.1068 9.81818 12.5632 9.81818C12.1887 9.81818 11.8539 9.89938 11.5589 10.0618C11.2673 10.2242 11.0369 10.4612 10.8679 10.7727C10.6989 11.0843 10.6143 11.4621 10.6143 11.9062ZM20.514 16.6591C19.8777 16.6591 19.3159 16.4983 18.8287 16.1768C18.3414 15.852 17.9603 15.3946 17.6852 14.8047C17.4101 14.2114 17.2725 13.5104 17.2725 12.7017C17.2725 11.8996 17.4101 11.2036 17.6852 10.6136C17.9603 10.0237 18.3431 9.56794 18.8336 9.24645C19.3242 8.92495 19.8909 8.7642 20.5339 8.7642C21.0311 8.7642 21.4238 8.84706 21.7122 9.01278C22.0038 9.17519 22.2259 9.3608 22.3784 9.5696C22.5342 9.77509 22.6551 9.94413 22.7413 10.0767H22.8407V6.31818H24.014V16.5H22.8805V15.3267H22.7413C22.6551 15.4659 22.5325 15.6416 22.3734 15.8537C22.2143 16.0625 21.9873 16.2498 21.6923 16.4155C21.3973 16.5779 21.0046 16.6591 20.514 16.6591ZM20.6731 15.6051C21.1438 15.6051 21.5415 15.4825 21.8663 15.2372C22.1911 14.9886 22.438 14.6456 22.6071 14.2081C22.7761 13.7673 22.8606 13.2585 22.8606 12.6818C22.8606 12.1117 22.7778 11.6129 22.612 11.1854C22.4463 10.7545 22.2011 10.4197 21.8762 10.1811C21.5514 9.93916 21.1504 9.81818 20.6731 9.81818C20.176 9.81818 19.7617 9.94579 19.4302 10.201C19.1021 10.4529 18.8552 10.7959 18.6895 11.2301C18.527 11.661 18.4458 12.1449 18.4458 12.6818C18.4458 13.2254 18.5287 13.7192 18.6944 14.1634C18.8635 14.6042 19.112 14.9555 19.4402 15.2173C19.7716 15.4759 20.1826 15.6051 20.6731 15.6051ZM26.3258 16.5V8.86364H27.4991V16.5H26.3258ZM26.9224 7.59091C26.6937 7.59091 26.4965 7.51302 26.3308 7.35724C26.1684 7.20147 26.0872 7.0142 26.0872 6.79545C26.0872 6.5767 26.1684 6.38944 26.3308 6.23366C26.4965 6.07789 26.6937 6 26.9224 6C27.1511 6 27.3467 6.07789 27.5091 6.23366C27.6748 6.38944 27.7576 6.5767 27.7576 6.79545C27.7576 7.0142 27.6748 7.20147 27.5091 7.35724C27.3467 7.51302 27.1511 7.59091 26.9224 7.59091ZM30.8214 11.9062V16.5H29.6481V8.86364H30.7816V10.0568H30.881C31.06 9.66903 31.3318 9.35748 31.6964 9.12216C32.061 8.88352 32.5316 8.7642 33.1083 8.7642C33.6254 8.7642 34.0778 8.87027 34.4656 9.08239C34.8533 9.29119 35.1549 9.60938 35.3704 10.0369C35.5858 10.4612 35.6935 10.9981 35.6935 11.6477V16.5H34.5202V11.7273C34.5202 11.1274 34.3645 10.66 34.0529 10.3253C33.7414 9.98722 33.3138 9.81818 32.7702 9.81818C32.3957 9.81818 32.061 9.89938 31.766 10.0618C31.4743 10.2242 31.244 10.4612 31.0749 10.7727C30.9059 11.0843 30.8214 11.4621 30.8214 11.9062ZM40.9199 19.5227C40.3532 19.5227 39.8659 19.4498 39.4583 19.304C39.0506 19.1615 38.7109 18.9725 38.4391 18.7372C38.1706 18.5052 37.9569 18.2566 37.7978 17.9915L38.7324 17.3352C38.8385 17.4744 38.9727 17.6335 39.1351 17.8125C39.2975 17.9948 39.5196 18.1522 39.8013 18.2848C40.0864 18.4207 40.4592 18.4886 40.9199 18.4886C41.5364 18.4886 42.0452 18.3395 42.4462 18.0412C42.8472 17.7429 43.0478 17.2756 43.0478 16.6392V15.0881H42.9483C42.8622 15.2273 42.7395 15.3996 42.5804 15.6051C42.4247 15.8073 42.1993 15.9879 41.9043 16.147C41.6126 16.3028 41.2182 16.3807 40.7211 16.3807C40.1046 16.3807 39.5511 16.2348 39.0605 15.9432C38.5733 15.6515 38.1872 15.2273 37.9022 14.6705C37.6204 14.1136 37.4796 13.4375 37.4796 12.642C37.4796 11.8598 37.6171 11.1787 37.8922 10.5987C38.1673 10.0154 38.5501 9.56463 39.0407 9.24645C39.5312 8.92495 40.098 8.7642 40.7409 8.7642C41.2381 8.7642 41.6325 8.84706 41.9242 9.01278C42.2192 9.17519 42.4445 9.3608 42.6003 9.5696C42.7594 9.77509 42.882 9.94413 42.9682 10.0767H43.0875V8.86364H44.2211V16.7188C44.2211 17.375 44.0719 17.9086 43.7736 18.3196C43.4786 18.7339 43.0809 19.0372 42.5804 19.2294C42.0833 19.425 41.5298 19.5227 40.9199 19.5227ZM40.8801 15.3267C41.3508 15.3267 41.7485 15.219 42.0733 15.0036C42.3981 14.7881 42.6451 14.4782 42.8141 14.0739C42.9831 13.6695 43.0676 13.1856 43.0676 12.6222C43.0676 12.072 42.9848 11.5864 42.8191 11.1655C42.6534 10.7446 42.4081 10.4148 42.0833 10.1761C41.7585 9.9375 41.3574 9.81818 40.8801 9.81818C40.383 9.81818 39.9687 9.94413 39.6373 10.196C39.3091 10.4479 39.0622 10.786 38.8965 11.2102C38.7341 11.6345 38.6529 12.1051 38.6529 12.6222C38.6529 13.1525 38.7357 13.6214 38.9015 14.0291C39.0705 14.4335 39.3191 14.7517 39.6472 14.9837C39.9786 15.2124 40.3896 15.3267 40.8801 15.3267ZM51.6983 6.31818V16.5H50.4654V6.31818H51.6983ZM55.1847 11.9062V16.5H54.0114V8.86364H55.1449V10.0568H55.2443C55.4233 9.66903 55.6951 9.35748 56.0597 9.12216C56.4242 8.88352 56.8949 8.7642 57.4716 8.7642C57.9886 8.7642 58.4411 8.87027 58.8288 9.08239C59.2166 9.29119 59.5182 9.60938 59.7337 10.0369C59.9491 10.4612 60.0568 10.9981 60.0568 11.6477V16.5H58.8835V11.7273C58.8835 11.1274 58.7277 10.66 58.4162 10.3253C58.1046 9.98722 57.6771 9.81818 57.1335 9.81818C56.759 9.81818 56.4242 9.89938 56.1293 10.0618C55.8376 10.2242 55.6072 10.4612 55.4382 10.7727C55.2692 11.0843 55.1847 11.4621 55.1847 11.9062Z" fill="#838382"/>
<path d="M22 38.5C22 44.02 17.52 48.5 12 48.5C6.48 48.5 2 44.02 2 38.5C2 32.98 6.48 28.5 12 28.5C17.52 28.5 22 32.98 22 38.5Z" stroke="white" stroke-width="1.5" stroke-linecap="round" stroke-linejoin="round"/>
<path d="M15.71 41.68L12.61 39.83C12.07 39.51 11.63 38.74 11.63 38.11V34.01" stroke="white" stroke-width="1.5" stroke-linecap="round" stroke-linejoin="round"/>
<path d="M41.5057 44.2557C40.5284 44.2519 39.6875 44.0114 38.983 43.5341C38.2822 43.0568 37.7424 42.3655 37.3636 41.4602C36.9886 40.5549 36.803 39.4659 36.8068 38.1932C36.8068 36.9242 36.9943 35.8428 37.3693 34.9489C37.7481 34.0549 38.2879 33.375 38.9886 32.9091C39.6932 32.4394 40.5322 32.2045 41.5057 32.2045C42.4792 32.2045 43.3163 32.4394 44.017 32.9091C44.7216 33.3788 45.2633 34.0606 45.642 34.9545C46.0208 35.8447 46.2083 36.9242 46.2045 38.1932C46.2045 39.4697 46.0152 40.5606 45.6364 41.4659C45.2614 42.3712 44.7235 43.0625 44.0227 43.5398C43.322 44.017 42.483 44.2557 41.5057 44.2557ZM41.5057 42.2159C42.1723 42.2159 42.7045 41.8807 43.1023 41.2102C43.5 40.5398 43.697 39.5341 43.6932 38.1932C43.6932 37.3106 43.6023 36.5758 43.4205 35.9886C43.2424 35.4015 42.9886 34.9602 42.6591 34.6648C42.3333 34.3693 41.9489 34.2216 41.5057 34.2216C40.8428 34.2216 40.3125 34.553 39.9148 35.2159C39.517 35.8788 39.3163 36.8712 39.3125 38.1932C39.3125 39.0871 39.4015 39.8333 39.5795 40.4318C39.7614 41.0265 40.017 41.4735 40.3466 41.7727C40.6761 42.0682 41.0625 42.2159 41.5057 42.2159ZM52.2599 44.1591C51.4115 44.1591 50.6558 44.0133 49.9929 43.7216C49.3338 43.4261 48.813 43.0208 48.4304 42.5057C48.0516 41.9867 47.8565 41.3883 47.8452 40.7102H50.3224C50.3376 40.9943 50.4304 41.2443 50.6009 41.4602C50.7751 41.6723 51.0062 41.8371 51.294 41.9545C51.5819 42.072 51.9058 42.1307 52.2656 42.1307C52.6406 42.1307 52.9721 42.0644 53.2599 41.9318C53.5478 41.7992 53.7732 41.6155 53.9361 41.3807C54.099 41.1458 54.1804 40.875 54.1804 40.5682C54.1804 40.2576 54.0933 39.983 53.919 39.7443C53.7486 39.5019 53.5024 39.3125 53.1804 39.1761C52.8622 39.0398 52.4834 38.9716 52.044 38.9716H50.9588V37.1648H52.044C52.4152 37.1648 52.7429 37.1004 53.027 36.9716C53.3149 36.8428 53.5384 36.6648 53.6974 36.4375C53.8565 36.2064 53.9361 35.9375 53.9361 35.6307C53.9361 35.339 53.866 35.0833 53.7259 34.8636C53.5895 34.6402 53.3963 34.4659 53.1463 34.3409C52.9001 34.2159 52.6122 34.1534 52.2827 34.1534C51.9493 34.1534 51.6444 34.214 51.3679 34.3352C51.0914 34.4527 50.8698 34.6212 50.7031 34.8409C50.5365 35.0606 50.4474 35.3182 50.4361 35.6136H48.0781C48.0895 34.9432 48.2808 34.3523 48.652 33.8409C49.0232 33.3295 49.5232 32.9299 50.152 32.642C50.7846 32.3504 51.4986 32.2045 52.294 32.2045C53.0971 32.2045 53.7997 32.3504 54.402 32.642C55.0043 32.9337 55.4721 33.3277 55.8054 33.8239C56.1425 34.3163 56.3092 34.8693 56.3054 35.483C56.3092 36.1345 56.1065 36.678 55.6974 37.1136C55.2921 37.5492 54.7637 37.8258 54.1122 37.9432V38.0341C54.9683 38.1439 55.6198 38.4413 56.0668 38.9261C56.5175 39.4072 56.741 40.0095 56.7372 40.733C56.741 41.3958 56.5497 41.9848 56.1634 42.5C55.7808 43.0152 55.2524 43.4205 54.5781 43.7159C53.9039 44.0114 53.1312 44.1591 52.2599 44.1591ZM59.9432 42.6477C59.5682 42.6477 59.2462 42.5152 58.9773 42.25C58.7121 41.9848 58.5795 41.6629 58.5795 41.2841C58.5795 40.9129 58.7121 40.5947 58.9773 40.3295C59.2462 40.0644 59.5682 39.9318 59.9432 39.9318C60.3068 39.9318 60.625 40.0644 60.8977 40.3295C61.1705 40.5947 61.3068 40.9129 61.3068 41.2841C61.3068 41.5341 61.2424 41.7633 61.1136 41.9716C60.9886 42.1761 60.8239 42.3409 60.6193 42.4659C60.4148 42.5871 60.1894 42.6477 59.9432 42.6477ZM59.9432 36.9375C59.5682 36.9375 59.2462 36.8049 58.9773 36.5398C58.7121 36.2746 58.5795 35.9527 58.5795 35.5739C58.5795 35.2027 58.7121 34.8864 58.9773 34.625C59.2462 34.3598 59.5682 34.2273 59.9432 34.2273C60.3068 34.2273 60.625 34.3598 60.8977 34.625C61.1705 34.8864 61.3068 35.2027 61.3068 35.5739C61.3068 35.8277 61.2424 36.0587 61.1136 36.267C60.9886 36.4716 60.8239 36.6345 60.6193 36.7557C60.4148 36.8769 60.1894 36.9375 59.9432 36.9375ZM63.2713 44V42.2273L67.4134 38.392C67.7656 38.0511 68.0611 37.7443 68.2997 37.4716C68.5421 37.1989 68.7259 36.9318 68.8509 36.6705C68.9759 36.4053 69.0384 36.1193 69.0384 35.8125C69.0384 35.4716 68.9607 35.178 68.8054 34.9318C68.6501 34.6818 68.438 34.4905 68.169 34.358C67.9001 34.2216 67.5952 34.1534 67.2543 34.1534C66.8982 34.1534 66.5876 34.2254 66.3224 34.3693C66.0573 34.5133 65.8527 34.7197 65.7088 34.9886C65.5649 35.2576 65.4929 35.5777 65.4929 35.9489H63.1577C63.1577 35.1875 63.33 34.5265 63.6747 33.9659C64.0194 33.4053 64.5024 32.9716 65.1236 32.6648C65.7448 32.358 66.4607 32.2045 67.2713 32.2045C68.1046 32.2045 68.83 32.3523 69.4474 32.6477C70.0687 32.9394 70.5516 33.3447 70.8963 33.8636C71.241 34.3826 71.4134 34.9773 71.4134 35.6477C71.4134 36.0871 71.3262 36.5208 71.152 36.9489C70.9815 37.3769 70.6766 37.8523 70.2372 38.375C69.7978 38.8939 69.1785 39.517 68.3793 40.2443L66.6804 41.9091V41.9886H71.5668V44H63.2713ZM72.9233 41.9545V40.017L77.7812 32.3636H79.4517V35.0455H78.4631L75.4006 39.892V39.983H82.304V41.9545H72.9233ZM78.5085 44V41.3636L78.554 40.5057V32.3636H80.8608V44H78.5085ZM85.3807 42.6477C85.0057 42.6477 84.6837 42.5152 84.4148 42.25C84.1496 41.9848 84.017 41.6629 84.017 41.2841C84.017 40.9129 84.1496 40.5947 84.4148 40.3295C84.6837 40.0644 85.0057 39.9318 85.3807 39.9318C85.7443 39.9318 86.0625 40.0644 86.3352 40.3295C86.608 40.5947 86.7443 40.9129 86.7443 41.2841C86.7443 41.5341 86.6799 41.7633 86.5511 41.9716C86.4261 42.1761 86.2614 42.3409 86.0568 42.4659C85.8523 42.5871 85.6269 42.6477 85.3807 42.6477ZM85.3807 36.9375C85.0057 36.9375 84.6837 36.8049 84.4148 36.5398C84.1496 36.2746 84.017 35.9527 84.017 35.5739C84.017 35.2027 84.1496 34.8864 84.4148 34.625C84.6837 34.3598 85.0057 34.2273 85.3807 34.2273C85.7443 34.2273 86.0625 34.3598 86.3352 34.625C86.608 34.8864 86.7443 35.2027 86.7443 35.5739C86.7443 35.8277 86.6799 36.0587 86.5511 36.267C86.4261 36.4716 86.2614 36.6345 86.0568 36.7557C85.8523 36.8769 85.6269 36.9375 85.3807 36.9375ZM92.9588 44.1591C92.1558 44.1591 91.4399 44.0114 90.8111 43.7159C90.1861 43.4205 89.6899 43.0133 89.3224 42.4943C88.955 41.9754 88.7637 41.3807 88.7486 40.7102H91.1349C91.1615 41.161 91.3509 41.5265 91.7031 41.8068C92.0554 42.0871 92.474 42.2273 92.9588 42.2273C93.3452 42.2273 93.6861 42.142 93.9815 41.9716C94.2808 41.7973 94.5137 41.5568 94.6804 41.25C94.8509 40.9394 94.9361 40.5833 94.9361 40.1818C94.9361 39.7727 94.849 39.4129 94.6747 39.1023C94.5043 38.7917 94.2675 38.5492 93.9645 38.375C93.6615 38.2008 93.3149 38.1117 92.9247 38.108C92.5838 38.108 92.2524 38.178 91.9304 38.3182C91.6122 38.4583 91.3641 38.6496 91.1861 38.892L88.9986 38.5L89.5497 32.3636H96.6634V34.375H91.5781L91.277 37.2898H91.3452C91.5497 37.0019 91.8584 36.7633 92.2713 36.5739C92.6842 36.3845 93.1463 36.2898 93.6577 36.2898C94.3584 36.2898 94.9834 36.4545 95.5327 36.7841C96.0819 37.1136 96.5156 37.5663 96.8338 38.142C97.152 38.714 97.3092 39.3731 97.3054 40.1193C97.3092 40.9034 97.1274 41.6004 96.7599 42.2102C96.3963 42.8163 95.8868 43.2936 95.2315 43.642C94.58 43.9867 93.8224 44.1591 92.9588 44.1591ZM103.487 44.1591C102.889 44.1553 102.311 44.0549 101.754 43.858C101.201 43.661 100.705 43.3409 100.266 42.8977C99.8262 42.4545 99.4777 41.8674 99.2202 41.1364C98.9664 40.4053 98.8395 39.5076 98.8395 38.4432C98.8433 37.4659 98.955 36.5928 99.1747 35.8239C99.3982 35.0511 99.7164 34.3958 100.129 33.858C100.546 33.3201 101.044 32.911 101.624 32.6307C102.203 32.3466 102.853 32.2045 103.572 32.2045C104.349 32.2045 105.035 32.3561 105.629 32.6591C106.224 32.9583 106.701 33.3655 107.061 33.8807C107.425 34.3958 107.644 34.9735 107.72 35.6136H105.294C105.199 35.2083 105 34.8902 104.697 34.6591C104.394 34.428 104.019 34.3125 103.572 34.3125C102.815 34.3125 102.239 34.642 101.845 35.3011C101.455 35.9602 101.256 36.8561 101.249 37.9886H101.328C101.502 37.6439 101.737 37.3504 102.033 37.108C102.332 36.8617 102.671 36.6742 103.05 36.5455C103.432 36.4129 103.836 36.3466 104.26 36.3466C104.949 36.3466 105.563 36.5095 106.101 36.8352C106.639 37.1572 107.063 37.6004 107.374 38.1648C107.684 38.7292 107.839 39.375 107.839 40.1023C107.839 40.8902 107.656 41.5909 107.288 42.2045C106.925 42.8182 106.415 43.2992 105.76 43.6477C105.108 43.9924 104.351 44.1629 103.487 44.1591ZM103.476 42.2273C103.855 42.2273 104.194 42.1364 104.493 41.9545C104.792 41.7727 105.027 41.5265 105.197 41.2159C105.368 40.9053 105.453 40.5568 105.453 40.1705C105.453 39.7841 105.368 39.4375 105.197 39.1307C105.031 38.8239 104.8 38.5795 104.504 38.3977C104.209 38.2159 103.872 38.125 103.493 38.125C103.209 38.125 102.946 38.178 102.703 38.2841C102.464 38.3902 102.254 38.5379 102.072 38.7273C101.894 38.9167 101.754 39.1364 101.652 39.3864C101.55 39.6326 101.499 39.8958 101.499 40.1761C101.499 40.5511 101.584 40.8939 101.754 41.2045C101.929 41.5152 102.163 41.7633 102.459 41.9489C102.758 42.1345 103.097 42.2273 103.476 42.2273Z" fill="#FFFFFD"/>
</svg>
